<mxfile host="app.diagrams.net" agent="Mozilla/5.0 (Macintosh; Intel Mac OS X 10_15_7) AppleWebKit/537.36 (KHTML, like Gecko) Chrome/131.0.0.0 Safari/537.36" version="25.0.3">
  <diagram name="Page-1" id="OzlNGk6A9shvJIx3Nv5U">
    <mxGraphModel dx="1592" dy="1052" grid="1" gridSize="10" guides="1" tooltips="1" connect="1" arrows="1" fold="1" page="1" pageScale="1" pageWidth="850" pageHeight="1100" math="0" shadow="0">
      <root>
        <mxCell id="0" />
        <mxCell id="1" parent="0" />
        <mxCell id="a822mHpvjUtGGVMt2L-W-24" style="edgeStyle=orthogonalEdgeStyle;rounded=0;orthogonalLoop=1;jettySize=auto;html=1;entryX=0.5;entryY=0;entryDx=0;entryDy=0;" edge="1" parent="1" source="a822mHpvjUtGGVMt2L-W-22" target="a822mHpvjUtGGVMt2L-W-23">
          <mxGeometry relative="1" as="geometry" />
        </mxCell>
        <mxCell id="a822mHpvjUtGGVMt2L-W-22" value="start" style="strokeWidth=2;html=1;shape=mxgraph.flowchart.start_1;whiteSpace=wrap;" vertex="1" parent="1">
          <mxGeometry x="375" y="380" width="100" height="60" as="geometry" />
        </mxCell>
        <mxCell id="a822mHpvjUtGGVMt2L-W-23" value="nhap n, gan i =1" style="rounded=1;whiteSpace=wrap;html=1;absoluteArcSize=1;arcSize=14;strokeWidth=2;" vertex="1" parent="1">
          <mxGeometry x="375" y="480" width="100" height="100" as="geometry" />
        </mxCell>
        <mxCell id="a822mHpvjUtGGVMt2L-W-28" style="edgeStyle=orthogonalEdgeStyle;rounded=0;orthogonalLoop=1;jettySize=auto;html=1;entryX=0;entryY=0.5;entryDx=0;entryDy=0;entryPerimeter=0;" edge="1" parent="1" source="a822mHpvjUtGGVMt2L-W-25" target="a822mHpvjUtGGVMt2L-W-27">
          <mxGeometry relative="1" as="geometry">
            <mxPoint x="330" y="1080" as="targetPoint" />
            <Array as="points">
              <mxPoint x="260" y="700" />
              <mxPoint x="260" y="1360" />
            </Array>
          </mxGeometry>
        </mxCell>
        <mxCell id="a822mHpvjUtGGVMt2L-W-32" style="edgeStyle=orthogonalEdgeStyle;rounded=0;orthogonalLoop=1;jettySize=auto;html=1;entryX=1;entryY=0.5;entryDx=0;entryDy=0;entryPerimeter=0;" edge="1" parent="1" source="a822mHpvjUtGGVMt2L-W-25" target="a822mHpvjUtGGVMt2L-W-31">
          <mxGeometry relative="1" as="geometry">
            <mxPoint x="480" y="840" as="targetPoint" />
            <Array as="points">
              <mxPoint x="570" y="700" />
              <mxPoint x="570" y="840" />
            </Array>
          </mxGeometry>
        </mxCell>
        <mxCell id="a822mHpvjUtGGVMt2L-W-25" value="n &amp;gt; 0" style="strokeWidth=2;html=1;shape=mxgraph.flowchart.decision;whiteSpace=wrap;" vertex="1" parent="1">
          <mxGeometry x="375" y="650" width="100" height="100" as="geometry" />
        </mxCell>
        <mxCell id="a822mHpvjUtGGVMt2L-W-26" style="edgeStyle=orthogonalEdgeStyle;rounded=0;orthogonalLoop=1;jettySize=auto;html=1;entryX=0.5;entryY=0;entryDx=0;entryDy=0;entryPerimeter=0;" edge="1" parent="1" source="a822mHpvjUtGGVMt2L-W-23" target="a822mHpvjUtGGVMt2L-W-25">
          <mxGeometry relative="1" as="geometry" />
        </mxCell>
        <mxCell id="a822mHpvjUtGGVMt2L-W-27" value="end" style="strokeWidth=2;html=1;shape=mxgraph.flowchart.start_1;whiteSpace=wrap;" vertex="1" parent="1">
          <mxGeometry x="375" y="1330" width="100" height="60" as="geometry" />
        </mxCell>
        <mxCell id="a822mHpvjUtGGVMt2L-W-29" value="false" style="text;html=1;align=center;verticalAlign=middle;resizable=0;points=[];autosize=1;strokeColor=none;fillColor=none;" vertex="1" parent="1">
          <mxGeometry x="335" y="668" width="50" height="30" as="geometry" />
        </mxCell>
        <mxCell id="a822mHpvjUtGGVMt2L-W-30" value="true" style="text;html=1;align=center;verticalAlign=middle;resizable=0;points=[];autosize=1;strokeColor=none;fillColor=none;" vertex="1" parent="1">
          <mxGeometry x="470" y="668" width="40" height="30" as="geometry" />
        </mxCell>
        <mxCell id="a822mHpvjUtGGVMt2L-W-31" value="i &amp;lt;= n" style="strokeWidth=2;html=1;shape=mxgraph.flowchart.decision;whiteSpace=wrap;" vertex="1" parent="1">
          <mxGeometry x="375" y="790" width="100" height="100" as="geometry" />
        </mxCell>
        <mxCell id="a822mHpvjUtGGVMt2L-W-33" value="" style="endArrow=none;html=1;rounded=0;entryX=0;entryY=0.5;entryDx=0;entryDy=0;entryPerimeter=0;" edge="1" parent="1" target="a822mHpvjUtGGVMt2L-W-31">
          <mxGeometry width="50" height="50" relative="1" as="geometry">
            <mxPoint x="260" y="840" as="sourcePoint" />
            <mxPoint x="540" y="990" as="targetPoint" />
            <Array as="points">
              <mxPoint x="320" y="840" />
            </Array>
          </mxGeometry>
        </mxCell>
        <mxCell id="a822mHpvjUtGGVMt2L-W-35" value="false" style="text;html=1;align=center;verticalAlign=middle;resizable=0;points=[];autosize=1;strokeColor=none;fillColor=none;" vertex="1" parent="1">
          <mxGeometry x="335" y="810" width="50" height="30" as="geometry" />
        </mxCell>
        <mxCell id="a822mHpvjUtGGVMt2L-W-36" value="tang bien i len 1" style="text;html=1;align=center;verticalAlign=middle;resizable=0;points=[];autosize=1;strokeColor=none;fillColor=none;rotation=0;" vertex="1" parent="1">
          <mxGeometry x="465" y="1040" width="110" height="30" as="geometry" />
        </mxCell>
        <mxCell id="a822mHpvjUtGGVMt2L-W-41" style="edgeStyle=orthogonalEdgeStyle;rounded=0;orthogonalLoop=1;jettySize=auto;html=1;entryX=0;entryY=0.5;entryDx=0;entryDy=0;entryPerimeter=0;" edge="1" parent="1" source="a822mHpvjUtGGVMt2L-W-37" target="a822mHpvjUtGGVMt2L-W-43">
          <mxGeometry relative="1" as="geometry">
            <mxPoint x="560" y="990" as="targetPoint" />
          </mxGeometry>
        </mxCell>
        <mxCell id="a822mHpvjUtGGVMt2L-W-37" value="n % i == 0" style="strokeWidth=2;html=1;shape=mxgraph.flowchart.decision;whiteSpace=wrap;" vertex="1" parent="1">
          <mxGeometry x="375" y="1020" width="100" height="100" as="geometry" />
        </mxCell>
        <mxCell id="a822mHpvjUtGGVMt2L-W-38" style="edgeStyle=orthogonalEdgeStyle;rounded=0;orthogonalLoop=1;jettySize=auto;html=1;entryX=0.5;entryY=0;entryDx=0;entryDy=0;entryPerimeter=0;" edge="1" parent="1" source="a822mHpvjUtGGVMt2L-W-31" target="a822mHpvjUtGGVMt2L-W-37">
          <mxGeometry relative="1" as="geometry" />
        </mxCell>
        <mxCell id="a822mHpvjUtGGVMt2L-W-39" value="true" style="text;html=1;align=center;verticalAlign=middle;resizable=0;points=[];autosize=1;strokeColor=none;fillColor=none;" vertex="1" parent="1">
          <mxGeometry x="430" y="878" width="40" height="30" as="geometry" />
        </mxCell>
        <mxCell id="a822mHpvjUtGGVMt2L-W-42" value="true" style="text;html=1;align=center;verticalAlign=middle;resizable=0;points=[];autosize=1;strokeColor=none;fillColor=none;" vertex="1" parent="1">
          <mxGeometry x="390" y="1110" width="40" height="30" as="geometry" />
        </mxCell>
        <mxCell id="a822mHpvjUtGGVMt2L-W-43" value="printf(&quot;i la uoc cua n&quot;)" style="strokeWidth=2;html=1;shape=mxgraph.flowchart.display;whiteSpace=wrap;" vertex="1" parent="1">
          <mxGeometry x="470" y="1210" width="160" height="60" as="geometry" />
        </mxCell>
        <mxCell id="a822mHpvjUtGGVMt2L-W-45" value="false" style="text;html=1;align=center;verticalAlign=middle;resizable=0;points=[];autosize=1;strokeColor=none;fillColor=none;" vertex="1" parent="1">
          <mxGeometry x="470" y="1070" width="50" height="30" as="geometry" />
        </mxCell>
        <mxCell id="a822mHpvjUtGGVMt2L-W-49" style="edgeStyle=orthogonalEdgeStyle;rounded=0;orthogonalLoop=1;jettySize=auto;html=1;entryX=1;entryY=0.5;entryDx=0;entryDy=0;entryPerimeter=0;" edge="1" parent="1" source="a822mHpvjUtGGVMt2L-W-43" target="a822mHpvjUtGGVMt2L-W-27">
          <mxGeometry relative="1" as="geometry" />
        </mxCell>
        <mxCell id="a822mHpvjUtGGVMt2L-W-50" value="" style="endArrow=classic;html=1;rounded=0;" edge="1" parent="1">
          <mxGeometry width="50" height="50" relative="1" as="geometry">
            <mxPoint x="475" y="1070" as="sourcePoint" />
            <mxPoint x="570" y="840" as="targetPoint" />
            <Array as="points">
              <mxPoint x="570" y="1070" />
            </Array>
          </mxGeometry>
        </mxCell>
        <mxCell id="a822mHpvjUtGGVMt2L-W-51" value="tang bien i len 1" style="text;html=1;align=center;verticalAlign=middle;resizable=0;points=[];autosize=1;strokeColor=none;fillColor=none;rotation=0;" vertex="1" parent="1">
          <mxGeometry x="465" y="1150" width="110" height="30" as="geometry" />
        </mxCell>
        <mxCell id="a822mHpvjUtGGVMt2L-W-52" value="" style="endArrow=none;html=1;rounded=0;" edge="1" parent="1">
          <mxGeometry width="50" height="50" relative="1" as="geometry">
            <mxPoint x="425" y="1180" as="sourcePoint" />
            <mxPoint x="570" y="1070" as="targetPoint" />
            <Array as="points">
              <mxPoint x="570" y="1180" />
            </Array>
          </mxGeometry>
        </mxCell>
      </root>
    </mxGraphModel>
  </diagram>
</mxfile>
